<svg width="121" height="120" viewBox="0 0 121 120" fill="none" xmlns="http://www.w3.org/2000/svg">
<rect width="120" height="120" transform="translate(0.333984)" fill="white"/>
<path d="M76.2484 75.8118C73.4506 84.4933 65.1851 89.81 56.1288 87.3048C53.8522 86.7196 52.4807 84.3973 53.0704 82.1252C53.6556 79.8485 55.978 78.4771 58.25 79.0668C60.0787 79.7937 62.0033 80.3697 63.9554 79.9034C67.1509 79.3274 69.7567 76.5616 71.1968 73.718C72.7923 70.7556 77.2222 72.6117 76.2484 75.8164V75.8118Z" fill="#F1E811"/>
<path d="M47.3244 68.7169C44.9883 69.6815 40.8875 71.6838 40.3161 74.2576C40.307 74.7057 40.4578 74.8062 40.7275 75.1445C42.3002 76.9549 42.1082 79.6978 40.2978 81.2705C38.1354 83.2225 34.5056 82.3539 33.4359 79.6567L33.0701 78.7652C31.6209 75.4051 32.3889 71.5101 34.8393 68.8449C37.7834 65.6996 41.8522 64.255 45.9026 63.4138C49.2627 62.8515 50.4925 67.5374 47.3198 68.7123L47.3244 68.7169Z" fill="#F1E811"/>
<path d="M90.5532 71.1305C87.6914 79.021 72.7971 79.8988 65.3271 79.2039C62.895 78.9799 60.0744 78.477 57.2217 77.6998C49.1803 75.5238 40.8828 71.1945 40.2794 64.8354C39.8451 60.2318 43.4658 54.8099 48.9654 50.8143C54.3004 46.9376 61.4001 44.4004 68.2621 45.2598C82.2329 47.0062 93.6436 62.5999 90.5532 71.1305Z" fill="#F1E811"/>
<path d="M63.9193 75.0986C61.6289 76.3924 55.439 69.791 50.0993 60.3461C49.2719 58.8878 48.5176 57.4477 47.8364 56.0488C46.1038 52.5012 44.8603 49.2188 44.2203 46.6176C43.4751 43.6049 43.5345 41.4928 44.5723 40.9031C46.8672 39.6093 53.0526 46.2107 58.3968 55.6556C63.7364 65.096 66.2096 73.8003 63.9193 75.0986Z" fill="#F1E811"/>
<path d="M72.7015 55.2033C74.1686 43.4913 71.9887 33.5748 67.8325 33.0542C63.6763 32.5335 59.1177 41.6059 57.6506 53.3179C56.1835 65.03 58.3634 74.9465 62.5196 75.4671C66.6758 75.9877 71.2344 66.9153 72.7015 55.2033Z" fill="#F1E811"/>
<path d="M86.5167 64.2205C95.682 56.7827 100.972 48.1165 98.3328 44.8641C95.6934 41.6116 86.1238 45.0045 76.9585 52.4423C67.7932 59.8801 62.503 68.5463 65.1424 71.7988C67.7818 75.0512 77.3514 71.6583 86.5167 64.2205Z" fill="#F1E811"/>
<path opacity="0.59" d="M59.9595 77.1696C54.501 83.7892 43.4789 82.6829 38.4364 82.1435C35.3231 81.8097 23.7799 80.58 19.638 72.854C18.8974 71.4688 17.7362 69.5944 18.3214 67.4229C19.0483 64.7348 22.0609 62.7736 34.2671 59.0066C45.8652 55.4271 51.7169 53.667 54.5558 54.8465C61.9892 57.946 65.8248 70.047 59.9595 77.165V77.1696Z" fill="url(#paint0_linear_520_585)"/>
<path d="M51.9037 61.137C51.7163 61.8045 52.1094 62.5314 52.69 62.8697C53.2203 63.1805 53.9335 63.1622 54.4409 62.8102C54.9484 62.4582 55.3507 61.8593 55.2958 61.2102C55.2318 60.4467 54.7655 59.7975 54.0112 59.5873C53.394 59.4135 52.6672 59.569 52.2054 60.0307C51.7437 60.4924 51.5608 61.1827 51.7346 61.8319C51.9083 62.4811 52.4203 62.9611 53.0466 63.1165C53.8832 63.3268 54.7015 62.8148 54.9712 62.0239C55.1038 61.6353 54.953 61.169 54.6695 60.8902C54.3495 60.5701 53.9609 60.5244 53.5358 60.5884C53.4901 60.5976 53.4443 60.6067 53.3986 60.6204L53.7232 60.5747C53.6775 60.5793 53.6318 60.5839 53.5861 60.5747L53.9244 60.6204C53.8329 60.6067 53.7369 60.593 53.6501 60.561L53.9609 60.6936C53.9335 60.6799 53.9061 60.6662 53.8786 60.6479L54.1438 60.8536C54.1072 60.8216 54.0752 60.7942 54.0432 60.7576L54.2489 61.0227C54.2215 60.9816 54.1987 60.945 54.1758 60.9039L54.3084 61.2193C54.2855 61.1599 54.2672 61.1005 54.2581 61.041L54.3038 61.393C54.3038 61.3427 54.3038 61.3016 54.3038 61.2559L54.2581 61.6079C54.2627 61.5759 54.2718 61.5485 54.2809 61.5165L54.1484 61.8319C54.1667 61.7862 54.1895 61.7496 54.2169 61.713L54.0112 61.9828C54.0295 61.9599 54.0524 61.9371 54.0798 61.9188L53.8101 62.1245C53.8512 62.0971 53.8878 62.0742 53.9289 62.0559L53.6089 62.1885C53.6546 62.1702 53.6958 62.1611 53.7461 62.1519L53.3895 62.1976C53.4398 62.1976 53.4809 62.1931 53.5312 62.1976L53.1746 62.1519C53.2203 62.1611 53.266 62.1702 53.3118 62.1839L52.9918 62.0468C53.0375 62.0651 53.074 62.0879 53.1106 62.1153L52.8409 61.9051C52.8637 61.9233 52.8866 61.9462 52.9049 61.9736L52.6946 61.6993C52.6946 61.6993 52.7266 61.745 52.7403 61.7725L52.6032 61.4525C52.6215 61.4936 52.6306 61.5302 52.6397 61.5713L52.5895 61.2147C52.594 61.2833 52.594 61.3565 52.5895 61.425L52.6352 61.0685C52.626 61.1142 52.6169 61.1507 52.6032 61.1919L52.7357 60.8764C52.7129 60.9313 52.6855 60.977 52.6489 61.0273L52.8546 60.7622C52.8272 60.7942 52.7997 60.8216 52.7632 60.849L53.0238 60.6479C52.9872 60.6707 52.9552 60.689 52.914 60.7073L53.2203 60.5793C53.1929 60.5884 53.1655 60.5976 53.138 60.5976L53.4763 60.5519C53.4489 60.5519 53.4215 60.5564 53.3895 60.5519L53.7232 60.5976C53.6821 60.593 53.6455 60.5839 53.6043 60.5702L53.9015 60.6936C53.8649 60.6753 53.8329 60.657 53.7963 60.6342L54.0432 60.8262C54.0112 60.7987 53.9838 60.7713 53.9564 60.7393L54.1484 60.9862C54.0569 60.8627 53.9838 60.7119 53.8649 60.6113C53.5266 60.3416 53.1563 60.1861 52.7175 60.3096C52.3197 60.4193 52.0043 60.7347 51.8946 61.1325L51.9037 61.137Z" fill="#3E3D4D"/>
<path d="M61.6194 61.3155C60.9931 61.8229 60.8194 62.7738 61.2217 63.4641C61.5966 64.1087 62.3006 64.4836 63.0412 64.479C63.7818 64.4744 64.5773 64.0356 64.9521 63.3773C65.3499 62.6778 65.3362 61.8732 64.9339 61.1783C64.1018 59.7291 61.8709 59.6971 61.048 61.1646C60.536 62.0743 60.76 63.2995 61.6834 63.8573C62.4149 64.3007 63.5395 64.2184 64.1155 63.5373C64.463 63.1258 64.7281 62.5452 64.5224 61.9966L64.5087 61.9646C64.3716 61.5943 64.1613 61.2332 63.7955 61.0366C63.4298 60.84 63.0184 60.776 62.6023 60.8812C62.3555 60.9406 62.0309 61.1052 61.8709 61.2972C61.7292 61.4618 62.2503 61.0732 62.0355 61.1692L62.4149 61.0092C62.3829 61.0229 62.3463 61.032 62.3098 61.032L62.7303 60.9772C62.6938 60.9772 62.6572 60.9772 62.6252 60.9772L63.0458 61.032C63.0092 61.0275 62.9772 61.0183 62.9452 61.0046L63.3201 61.1646C63.4847 61.2743 63.6218 61.4069 63.7315 61.5715L63.8915 61.9463C63.8732 61.9052 63.8641 61.8641 63.8595 61.8229L63.9144 62.2389C63.9098 62.1978 63.9144 62.1521 63.9144 62.1109L63.8595 62.5269C63.8961 62.3761 63.8687 62.4355 63.7681 62.7144C63.5807 62.9292 63.5441 62.9841 63.6492 62.8698C63.5212 63.0024 63.3658 63.0938 63.1829 63.1395C63.2241 63.1258 63.2606 63.1167 63.3018 63.1121L62.8904 63.167C62.9544 63.1624 63.0092 63.167 63.0732 63.167L62.6618 63.1121C62.8583 63.1487 62.7761 63.2081 62.5292 63.0298C62.6618 63.1304 62.6938 63.1852 62.4241 62.9247C62.5932 63.0892 62.2412 62.5772 62.3418 62.8012L62.2366 62.5452C62.2503 62.5818 62.2595 62.6229 62.264 62.6641L62.2092 62.2618C62.2138 62.3029 62.2138 62.3441 62.2092 62.3852L62.264 61.9829C62.2412 62.1521 62.1589 62.1749 62.3463 61.8549C62.2275 62.0561 62.6069 61.5852 62.4286 61.7406L62.6343 61.5852C62.5978 61.608 62.5658 61.6309 62.5246 61.6446C62.5201 61.5943 62.9498 61.512 62.6435 61.5623L63.0366 61.5075C62.9726 61.512 62.9178 61.512 62.8538 61.5075L63.2469 61.5623C63.1052 61.5303 63.1647 61.5623 63.4252 61.6538C63.2972 61.576 63.3475 61.6172 63.5807 61.7818C63.7407 62.0103 63.7864 62.0652 63.7087 61.9418C63.6355 61.8275 63.5532 61.7223 63.4618 61.6263C63.3749 61.5303 63.2698 61.448 63.1509 61.384C63.3704 61.5669 63.4298 61.608 63.3338 61.5166C63.4847 61.7223 63.5258 61.7726 63.4527 61.6675C63.3978 61.5669 63.4207 61.6172 63.5167 61.8229C63.3749 61.4389 63.1281 61.1372 62.7212 61.0275C62.3143 60.9177 61.9395 61.0549 61.6103 61.32L61.6194 61.3155Z" fill="#3E3D4D"/>
<path d="M51.7894 57.2418C52.4431 55.8337 54.1072 55.6372 55.0764 56.8395C55.4924 57.3561 56.2147 56.6246 55.8032 56.1126C54.4409 54.4257 51.8122 54.7548 50.8979 56.7206C50.6236 57.3195 51.5059 57.8407 51.7848 57.2418H51.7894Z" fill="#3E3D4D"/>
<path d="M62.9492 57.2509C64.6544 55.8337 67.114 56.9308 67.2465 59.1252C67.2877 59.7835 68.3163 59.7881 68.2751 59.1252C68.0877 56.0028 64.6133 54.5353 62.2224 56.524C61.7149 56.9491 62.4464 57.6714 62.9492 57.2509Z" fill="#3E3D4D"/>
<path d="M58.3133 65.5212C58.3133 66.5681 57.463 67.4184 56.4161 67.4184C55.3692 67.4184 54.5234 66.5681 54.5234 65.5212C54.5234 65.1966 54.6011 64.8949 54.7429 64.6298C55.0629 64.0309 55.6892 63.624 56.4161 63.624C57.2664 63.624 57.9841 64.1818 58.2264 64.9544C58.2858 65.1326 58.3133 65.3247 58.3133 65.5212Z" fill="#3E3D4D" stroke="#3E3D4D" stroke-width="0.914319" stroke-miterlimit="10" stroke-linecap="round"/>
<path d="M39.5575 83.4448L49.0847 80.6806L36.5723 75.5649" fill="#767B77"/>
<path d="M39.5575 83.4448L49.0847 80.6806L36.5723 75.5649" stroke="#767B77" stroke-width="1.82864" stroke-linecap="round" stroke-linejoin="round"/>
<path d="M20.1458 64.0767L37.9613 67.5146C38.839 67.6837 39.5202 68.4335 39.6574 69.3843L41.454 81.7734C41.678 83.314 40.4254 84.6352 39.0036 84.3609L21.531 80.9871C20.6761 80.8225 20.0041 80.1047 19.8441 79.1813L17.7046 66.7282C17.4348 65.1693 18.6966 63.8024 20.1458 64.0813V64.0767Z" fill="#3E3D4D"/>
<path d="M27.8863 75.5333C28.6109 75.5333 29.1983 74.9459 29.1983 74.2212C29.1983 73.4966 28.6109 72.9092 27.8863 72.9092C27.1616 72.9092 26.5742 73.4966 26.5742 74.2212C26.5742 74.9459 27.1616 75.5333 27.8863 75.5333Z" fill="white"/>
<path d="M28.3968 71.926C28.6872 71.926 28.9226 71.6906 28.9226 71.4002C28.9226 71.1099 28.6872 70.8745 28.3968 70.8745C28.1065 70.8745 27.8711 71.1099 27.8711 71.4002C27.8711 71.6906 28.1065 71.926 28.3968 71.926Z" fill="white"/>
<path d="M29.9014 72.9454C30.0832 72.9454 30.2306 72.7981 30.2306 72.6163C30.2306 72.4345 30.0832 72.2871 29.9014 72.2871C29.7196 72.2871 29.5723 72.4345 29.5723 72.6163C29.5723 72.7981 29.7196 72.9454 29.9014 72.9454Z" fill="white"/>
<path d="M52.7001 61.8593C52.9779 61.8593 53.203 61.6341 53.203 61.3564C53.203 61.0787 52.9779 60.8535 52.7001 60.8535C52.4224 60.8535 52.1973 61.0787 52.1973 61.3564C52.1973 61.6341 52.4224 61.8593 52.7001 61.8593Z" fill="white"/>
<path d="M61.8349 62.806C62.1126 62.806 62.3378 62.5809 62.3378 62.3032C62.3378 62.0254 62.1126 61.8003 61.8349 61.8003C61.5572 61.8003 61.332 62.0254 61.332 62.3032C61.332 62.5809 61.5572 62.806 61.8349 62.806Z" fill="white"/>
<path d="M58.2277 64.9544C57.8437 65.3018 57.2677 65.5212 56.6276 65.5212C55.8047 65.5212 55.0916 65.1555 54.7441 64.6298C55.0642 64.0309 55.6905 63.624 56.4173 63.624C57.2677 63.624 57.9854 64.1818 58.2277 64.9544Z" fill="white"/>
<defs>
<linearGradient id="paint0_linear_520_585" x1="21.7367" y1="59.5804" x2="58.0988" y2="79.4125" gradientUnits="userSpaceOnUse">
<stop stop-color="#B5FF9F"/>
<stop offset="1" stop-color="white"/>
</linearGradient>
</defs>
</svg>
