<svg width="120" height="120" viewBox="0 0 120 120" fill="none" xmlns="http://www.w3.org/2000/svg">
<rect width="120" height="120" fill="white"/>
<path d="M37.7516 78.7834C41.6263 77.7452 43.8623 73.5262 42.746 69.36C41.6297 65.1938 37.5837 62.6581 33.709 63.6963C29.8344 64.7345 27.5983 68.9535 28.7146 73.1197C29.831 77.2859 33.877 79.8216 37.7516 78.7834Z" fill="#F1E811"/>
<path d="M85.8863 58.5368C86.1374 67.3456 71.292 74.2784 63.3979 76.6518C53.573 79.6084 36.3802 80.9581 32.0925 72.9508C27.5737 64.5111 37.8646 46.5666 52.7761 42.5656C67.7248 38.5601 85.6127 49.009 85.8812 58.5382L85.8863 58.5368Z" fill="#F1E811"/>
<path d="M60.9961 75.8036C62.9254 73.3658 57.1081 65.5477 48.0028 58.3412C38.8975 51.1348 29.9521 47.2689 28.0227 49.7067C26.0934 52.1444 31.9106 59.9626 41.016 67.1691C50.1213 74.3755 59.0667 78.2413 60.9961 75.8036Z" fill="#F1E811"/>
<path d="M51.0356 73.1076C53.3705 70.1575 50.4299 63.9406 44.4677 59.2218C38.5055 54.5029 31.7793 53.0691 29.4445 56.0192C27.1096 58.9693 30.0501 65.1862 36.0124 69.9051C41.9746 74.6239 48.7008 76.0577 51.0356 73.1076Z" fill="#F1E811"/>
<path d="M64.4088 76.3475C68.8552 75.1561 69.7374 64.0307 66.3793 51.4982C63.0213 38.9657 56.6945 29.772 52.2481 30.9634C47.8018 32.1548 46.9195 43.2802 50.2776 55.8127C53.6357 68.3452 59.9624 77.5389 64.4088 76.3475Z" fill="#F1E811"/>
<path d="M78.3479 58.3916C86.8976 48.6323 90.8911 38.1476 87.2677 34.9734C83.6444 31.7991 73.7762 37.1373 65.2266 46.8966C56.6769 56.6559 52.6834 67.1406 56.3068 70.3149C59.9301 73.4891 69.7983 68.1509 78.3479 58.3916Z" fill="#F1E811"/>
<path d="M54.2471 61.8295C53.5074 62.0002 53.1441 62.8171 53.1275 63.5136C53.102 64.4432 53.786 65.1717 54.6345 65.4277C55.9552 65.8263 57.4205 64.8789 57.7187 63.5522C57.9005 62.7345 57.6836 61.9248 57.1172 61.3076C56.657 60.7992 55.9783 60.5417 55.3084 60.5015C54.6385 60.4613 53.943 60.7355 53.4333 61.1907C52.783 61.7769 52.5742 62.6787 52.7208 63.5127C52.9015 64.5354 53.8243 65.2328 54.8227 65.2894C55.821 65.3459 56.7411 64.5776 57.0459 63.6446C57.2454 63.0364 57.0217 62.2834 56.5653 61.8509L56.543 61.8294C55.9768 61.2946 55.0474 61.1262 54.3661 61.5559C53.9293 61.8322 53.6232 62.2273 53.4823 62.7264L53.6629 62.2936C53.6507 62.3298 53.6305 62.3572 53.6053 62.3859L53.8899 62.0131C53.8646 62.0418 53.8394 62.0705 53.8062 62.0904L54.1835 61.7971C54.1518 61.822 54.1173 61.8368 54.0776 61.8529L54.5326 61.6651C54.4968 61.6747 54.4558 61.6857 54.4199 61.6953L54.9078 61.6304C54.8706 61.6349 54.832 61.6343 54.792 61.6285L55.2603 61.6953L55.2059 61.6769L55.6388 61.8575L55.5868 61.8275L55.9597 62.1121C55.9193 62.0844 55.8841 62.0554 55.8563 62.0134L56.1483 62.3856C56.1219 62.3487 56.0942 62.3067 56.0818 62.2606L56.2683 62.7105C56.2559 62.6643 56.2436 62.6182 56.2312 62.5721L56.2947 63.0549C56.2874 63.0074 56.2905 62.9572 56.2935 62.9069L56.2318 63.3739C56.2434 63.2939 56.2655 63.233 56.29 63.1605L56.1132 63.5869C56.1343 63.5428 56.1606 63.4973 56.1896 63.4621L55.9087 63.8284C55.9377 63.7932 55.9681 63.7631 55.9985 63.733L55.6301 64.0184C55.6847 63.9763 55.7318 63.9472 55.7943 63.914L55.3496 64.0991C55.434 64.0655 55.5108 64.0449 55.6007 64.0318L55.123 64.0939C55.2143 64.0859 55.2966 64.0858 55.3882 64.0997L54.9264 64.0367C54.991 64.0524 55.0543 64.0629 55.1151 64.085L54.6939 63.9068C54.7742 63.9402 54.8457 63.9814 54.9199 64.033L54.5601 63.7559C54.5953 63.7849 54.6241 63.8101 54.6504 63.847L54.3663 63.4837C54.4084 63.5384 54.4375 63.5855 54.4708 63.648L54.2884 63.2135C54.3114 63.2788 54.3279 63.3403 54.3406 63.4082L54.2813 62.9408C54.2871 62.9832 54.2827 63.0283 54.2783 63.0734L54.339 62.6232C54.3346 62.6684 54.3251 62.7148 54.3142 62.7562C54.4533 62.4553 54.4829 62.3814 54.4082 62.5333C54.2769 62.7607 54.7537 62.1826 54.4543 62.4386L54.8087 62.1623C54.754 62.2044 54.6967 62.2363 54.6393 62.2681L55.0635 62.0885C54.9997 62.1166 54.9433 62.1318 54.8739 62.1394L55.3311 62.0828C55.2618 62.0904 55.1999 62.085 55.1315 62.0758L55.5701 62.1341C55.3697 62.0834 55.7995 62.2319 55.8023 62.2421C55.7981 62.2268 55.702 62.1756 55.6774 62.1657C55.5475 62.0907 55.3714 62.028 55.2329 61.9827C55.0763 61.9313 55.1573 61.9261 55.4419 62.086C55.1963 61.9486 55.6611 62.269 55.5346 62.1656C55.1586 61.8489 54.7316 61.7106 54.2509 61.823L54.2471 61.8295Z" fill="#3E3D4D"/>
<path d="M37.2717 52.3059C37.3738 50.1858 39.5121 49.0032 41.3697 50.0324C42.04 50.4021 42.643 49.3726 41.9662 48.9992C39.3111 47.5356 36.2196 49.2812 36.0787 52.3015C36.0427 53.0691 37.2358 53.0735 37.2731 52.311L37.2717 52.3059Z" fill="#3E3D4D"/>
<path d="M49.9375 51.7955C50.9717 49.8541 53.5254 49.9553 54.4645 51.9226C54.7979 52.6133 55.8224 52.0092 55.4942 51.3172C54.1697 48.5468 50.3416 48.507 48.9044 51.199C48.5426 51.8781 49.5757 52.4746 49.9375 51.7955Z" fill="#3E3D4D"/>
<path d="M46.3125 75.127L64.6725 89.9204" stroke="#FFB487" stroke-width="2.37076" stroke-miterlimit="10" stroke-linecap="round"/>
<path d="M43.116 69.2609C45.3264 68.6686 46.6382 66.3966 46.0459 64.1861C45.4536 61.9757 43.1816 60.6639 40.9711 61.2562C38.7607 61.8485 37.4489 64.1205 38.0412 66.331C38.6335 68.5414 40.9055 69.8532 43.116 69.2609Z" fill="#3E3D4D"/>
<path d="M53.6172 68.441C53.9152 69.553 53.2549 70.6966 52.1429 70.9946C51.0308 71.2926 49.8923 70.6309 49.5943 69.5189C49.5023 69.1755 49.4978 68.8307 49.5709 68.509C49.7389 67.7829 50.2897 67.174 51.0636 66.9666C51.9655 66.7249 52.8884 67.1148 53.3643 67.8661C53.4766 68.0392 53.5623 68.236 53.6172 68.441Z" fill="#3E3D4D" stroke="#3E3D4D" stroke-width="0.948303" stroke-miterlimit="10" stroke-linecap="round"/>
<path d="M53.3622 67.861C53.0511 68.3398 52.5031 68.7338 51.8215 68.9165C50.9503 69.1499 50.0875 68.9636 49.5688 68.5039C49.7368 67.7778 50.2876 67.1689 51.0615 66.9615C51.9634 66.7198 52.8863 67.1097 53.3622 67.861Z" fill="white"/>
<path opacity="0.45" d="M39.4326 78.7999C46.0781 77.0192 50.0261 70.2045 48.2507 63.5788C46.4754 56.9531 39.6489 53.0255 33.0034 54.8061C26.3579 56.5868 22.4099 63.4015 24.1853 70.0271C25.9606 76.6528 32.7871 80.5805 39.4326 78.7999Z" fill="#B5FFDD"/>
<path d="M39.0397 78.9766C45.6852 77.1959 49.6289 70.3652 47.8482 63.7197C46.0676 57.0742 39.2368 53.1304 32.5913 54.9111C25.9458 56.6917 22.0021 63.5225 23.7828 70.168C25.5634 76.8135 32.3942 80.7572 39.0397 78.9766Z" stroke="#FFB487" stroke-width="1.42245" stroke-miterlimit="10"/>
<path d="M78.7638 67.4646C78.3424 75.4649 73.804 83.5358 66.1091 86.6522C63.4242 87.7835 60.5322 88.3058 57.6687 88.2986C54.9469 88.3084 52.7273 86.1129 52.7125 83.3925C52.7027 80.6708 54.8982 78.4512 57.6186 78.4363C60.2337 78.7462 62.9283 78.6559 65.263 77.3657C69.2107 75.4126 71.6188 70.9116 72.4585 66.666C73.31 62.8127 78.9051 63.5435 78.7587 67.466L78.7638 67.4646Z" fill="#F1E811"/>
</svg>
