<svg width="121" height="120" viewBox="0 0 121 120" fill="none" xmlns="http://www.w3.org/2000/svg">
<rect width="120" height="120" transform="translate(0.667969)" fill="white"/>
<path opacity="0.47" d="M89.1967 59.7789C87.8676 74.3386 75.5548 88.6458 59.3318 88.5085C43.7349 88.3767 32.0317 74.9535 30.1644 61.3766C27.7754 44.0005 41.3129 25.0323 59.3318 24.8895C76.8619 24.7468 90.7783 42.4797 89.1967 59.7789Z" fill="url(#paint0_linear_520_636)"/>
<path opacity="0.47" d="M68.1262 62.3804C69.628 64.6235 78.0967 77.2466 73.5801 83.5581C65.7308 94.5208 19.7425 84.9546 15.33 63.9528C13.9816 57.5258 16.514 49.9718 21.4856 45.9858C32.81 36.9089 57.1525 46.0243 68.1207 62.3804H68.1262Z" fill="url(#paint1_linear_520_636)"/>
<path opacity="0.47" d="M66.753 85.0861C64.0835 84.7352 49.0422 82.7394 47.3209 75.1839C44.328 62.0576 81.9315 33.908 100.547 44.4737C106.242 47.7086 110.205 54.5953 109.893 60.9555C109.175 75.4416 86.2454 87.6631 66.7585 85.0806L66.753 85.0861Z" fill="url(#paint2_linear_520_636)"/>
<path d="M34.1453 74.8384C29.2642 76.9932 23.7399 76.7245 22.69 70.4466C22.5526 69.9202 22.4262 69.7393 22.3657 69.7119C22.0469 69.5364 21.7556 69.4926 21.1839 69.4926C19.2161 69.5529 16.8195 70.2218 14.7032 69.3884C8.66777 67.0252 10.7236 58.8228 13.406 54.6777C16.2918 50.4723 22.4922 54.3762 19.9252 58.7844C18.7873 60.1935 18.0673 61.9864 17.8474 63.6368C17.7869 63.5107 17.5286 63.2146 17.3527 63.1379C17.2867 63.094 17.1933 63.0885 17.1823 63.0721C17.1548 63.0611 17.0943 63.0721 17.1383 63.0775C18.4355 63.3407 20.0021 62.9789 21.5742 63.1817C23.6575 63.3243 26.0431 64.3551 27.2964 66.3125C28.2583 67.6832 28.4177 69.52 28.6156 70.5891C28.6156 70.633 28.6156 70.5782 28.5881 70.5946C28.5826 70.5672 28.5386 70.5562 28.5221 70.5398C28.4727 70.5069 28.4617 70.5288 28.5111 70.5672C28.6156 70.6495 28.9179 70.7372 29.3247 70.7536C30.1602 70.792 31.32 70.5453 32.4303 70.1779C35.481 69.2787 37.0531 73.5609 34.1453 74.8439V74.8384Z" fill="#F1E811"/>
<path d="M88.8094 68.1736C90.2273 68.535 91.6617 68.8854 92.8434 68.4802C92.9258 68.431 92.9588 68.3926 92.9203 68.3981C92.8763 68.409 92.7884 68.4912 92.7499 68.524C92.8049 67.7356 93.0742 65.8741 93.981 64.6094C94.635 63.6294 95.6298 62.8629 96.685 62.3592C98.7569 61.2915 101.956 61.5598 103.637 61.5105C104.088 61.4941 104.385 61.3791 104.187 61.4065C103.89 61.4613 103.588 61.8062 103.489 62.0471C103.395 62.2661 103.434 62.1347 103.346 61.8226C103.071 60.7221 102.478 59.3424 101.571 58.3843C98.3667 54.4259 103.907 49.6352 107.391 53.3528C110.133 56.906 112.557 63.8976 107.908 67.1279C105.011 69.0551 101.994 67.5933 99.1581 67.9765C98.9767 68.0422 98.8778 68.086 98.8668 68.0641C98.8393 68.0477 98.7294 68.1298 98.5975 68.6938C98.5591 68.858 98.4546 69.2741 98.4162 69.4329C98.1084 70.7578 97.3555 72.1321 96.1794 72.8931C93.4534 74.7217 89.8811 73.8512 87.2376 72.8657C84.2698 71.6776 85.7317 67.3305 88.8149 68.1572L88.8094 68.1736Z" fill="#F1E811"/>
<path d="M90.6801 75.7393C88.4527 85.0968 70.8419 88.2124 61.8445 88.4866C50.6472 88.8267 32.1366 85.3985 29.8818 75.7393C27.5008 65.5589 43.4273 49.5533 60.281 49.5479C77.173 49.5479 93.0886 65.6192 90.6801 75.7393Z" fill="#F1E811"/>
<path d="M58.6495 85.773C62.6847 82.7718 59.1 71.1208 50.6427 59.7497C42.1855 48.3786 32.0584 41.5935 28.0232 44.5947C23.988 47.5959 27.5727 59.2469 36.03 70.618C44.4872 81.989 54.6143 88.7742 58.6495 85.773Z" fill="#F1E811"/>
<path d="M60.283 85.4272C65.2879 85.4272 69.3452 73.9177 69.3452 59.7199C69.3452 45.5222 65.2879 34.0127 60.283 34.0127C55.278 34.0127 51.2207 45.5222 51.2207 59.7199C51.2207 73.9177 55.278 85.4272 60.283 85.4272Z" fill="#F1E811"/>
<path d="M84.5842 70.6326C93.0414 59.2615 96.6261 47.6105 92.5909 44.6093C88.5557 41.6082 78.4286 48.3933 69.9714 59.7644C61.5141 71.1354 57.9294 82.7865 61.9646 85.7876C65.9998 88.7888 76.1269 82.0037 84.5842 70.6326Z" fill="#F1E811"/>
<path d="M55.5352 74.3306C55.8698 74.6775 57.5655 76.3452 60.282 76.4236C62.9037 76.5019 64.6497 75.0413 65.029 74.7111" stroke="#3E3D4D" stroke-miterlimit="10" stroke-linecap="round"/>
<path d="M49.49 62.9418C50.1624 60.9043 52.6315 60.3122 54.2242 61.795C54.7974 62.3284 55.6793 61.4857 55.1006 60.947C52.8299 58.8294 49.253 59.7202 48.294 62.6218C48.0515 63.3578 49.2475 63.6725 49.49 62.9418Z" fill="#3E3D4D"/>
<path d="M51.8102 70.4487C52.4708 68.341 54.8966 67.7285 56.4614 69.2624C57.0246 69.8142 57.8909 68.9424 57.3224 68.3851C55.0915 66.1946 51.5774 67.116 50.6352 70.1177C50.397 70.8791 51.572 71.2047 51.8102 70.4487Z" fill="#3E3D4D"/>
<path d="M63.6464 68.9222C65.1738 67.3201 67.7647 67.7108 68.568 69.8377C68.8508 70.5857 70.084 70.2619 69.7955 69.5027C68.6754 66.5441 64.9815 65.69 62.7413 68.0346C62.1813 68.6207 63.0807 69.5139 63.6408 68.9222H63.6464Z" fill="#3E3D4D"/>
<path d="M66.8114 61.4739C68.4651 59.691 71.1592 60.53 71.5973 62.9091C71.7451 63.6929 72.9279 63.3617 72.7855 62.5779C72.1777 59.288 68.1913 58.1675 65.9407 60.5962C65.3986 61.1813 66.2693 62.059 66.8114 61.4739Z" fill="#3E3D4D"/>
<defs>
<linearGradient id="paint0_linear_520_636" x1="59.6009" y1="24.884" x2="59.6009" y2="88.5085" gradientUnits="userSpaceOnUse">
<stop stop-color="white"/>
<stop offset="1" stop-color="#FFA23F"/>
</linearGradient>
<linearGradient id="paint1_linear_520_636" x1="19.3644" y1="48.0297" x2="71.3525" y2="86.5796" gradientUnits="userSpaceOnUse">
<stop stop-color="white"/>
<stop offset="1" stop-color="#FFA23F"/>
</linearGradient>
<linearGradient id="paint2_linear_520_636" x1="109.78" y1="58.0155" x2="46.5164" y2="71.3323" gradientUnits="userSpaceOnUse">
<stop stop-color="white"/>
<stop offset="1" stop-color="#FFA23F"/>
</linearGradient>
</defs>
</svg>
