<svg width="32" height="36" viewBox="0 0 32 36" fill="none" xmlns="http://www.w3.org/2000/svg">
<path d="M10.9209 32.7462L10.9227 32.7432L18.1452 21.0067L21.5047 22.8881L15.0583 35.0596L10.9209 32.7462ZM10.5697 13.1118L16.971 0.940278L21.0637 3.29802L21.0615 3.30158L13.8392 15.0377L10.5697 13.1118ZM22.8789 15.6737L30.3621 27.2591L26.2243 29.6878H26.1945L19.564 17.6448L22.8789 15.6737ZM0.756149 20.956L14.5058 21.3617L14.5953 25.1689L0.756149 25.755V20.9828V20.956ZM17.4789 10.8307L31.3186 10.2446L31.3635 14.999H31.3365H31.3363L17.4789 14.683V10.8307ZM9.10545 20.2807L1.71237 8.65009L5.79344 6.22836L12.3751 18.3547L9.10545 20.2807Z" fill="#121212" stroke="#121212" stroke-width="0.0357346"/>
</svg>
