<svg width="241" height="40" viewBox="0 0 241 40" fill="none" xmlns="http://www.w3.org/2000/svg">
<path d="M14.9209 34.7462L14.9227 34.7432L22.1452 23.0067L25.5047 24.8881L19.0583 37.0596L14.9209 34.7462ZM14.5697 15.1118L20.971 2.94028L25.0637 5.29802L25.0615 5.30158L17.8392 17.0377L14.5697 15.1118ZM26.8789 17.6737L34.3621 29.2591L30.2243 31.6878H30.1945L23.564 19.6448L26.8789 17.6737ZM4.75615 22.956L18.5058 23.3617L18.5953 27.1689L4.75615 27.755V22.9828V22.956ZM21.4789 12.8307L35.3186 12.2446L35.3635 16.999H35.3365H35.3363L21.4789 16.683V12.8307ZM13.1055 22.2807L5.71237 10.6501L9.79344 8.22836L16.3751 20.3547L13.1055 22.2807Z" fill="#121212" stroke="#121212" stroke-width="0.0357346"/>
<path d="M58.9991 31.5V8.14H63.4471V31.5H58.9991ZM62.8071 31.5V27.66H73.3991V31.5H62.8071ZM62.8071 21.548V17.708H72.5671V21.548H62.8071ZM62.8071 11.98V8.14H73.1431V11.98H62.8071ZM85.0154 32.108C83.5007 32.108 82.1887 31.852 81.0794 31.34C79.9914 30.828 79.0741 30.1453 78.3274 29.292C77.6021 28.4387 77.0581 27.4787 76.6954 26.412C76.3327 25.3453 76.1514 24.2573 76.1514 23.148V22.54C76.1514 21.3667 76.3327 20.2467 76.6954 19.18C77.0794 18.092 77.6447 17.132 78.3914 16.3C79.1381 15.4467 80.0554 14.7747 81.1434 14.284C82.2527 13.772 83.5327 13.516 84.9834 13.516C86.4981 13.516 87.8527 13.8147 89.0474 14.412C90.2421 14.988 91.1914 15.7987 91.8954 16.844C92.6207 17.8893 93.0261 19.1053 93.1114 20.492H88.7914C88.6847 19.596 88.3007 18.8493 87.6394 18.252C86.9994 17.6547 86.1141 17.356 84.9834 17.356C84.0021 17.356 83.1807 17.5907 82.5194 18.06C81.8794 18.5293 81.3994 19.18 81.0794 20.012C80.7594 20.8227 80.5994 21.7613 80.5994 22.828C80.5994 23.852 80.7487 24.78 81.0474 25.612C81.3674 26.444 81.8474 27.0947 82.4874 27.564C83.1487 28.0333 83.9914 28.268 85.0154 28.268C85.7834 28.268 86.4447 28.1293 86.9994 27.852C87.5541 27.5747 87.9914 27.1907 88.3114 26.7C88.6527 26.2093 88.8661 25.6547 88.9514 25.036H93.2714C93.1861 26.444 92.7701 27.6813 92.0234 28.748C91.2981 29.7933 90.3274 30.6147 89.1114 31.212C87.9167 31.8093 86.5514 32.108 85.0154 32.108ZM105.187 32.108C103.651 32.108 102.296 31.8627 101.123 31.372C99.9493 30.8813 98.9573 30.22 98.1466 29.388C97.336 28.5347 96.7173 27.5747 96.2906 26.508C95.8853 25.4413 95.6826 24.332 95.6826 23.18V22.508C95.6826 21.3133 95.896 20.1827 96.3226 19.116C96.7706 18.028 97.4 17.068 98.2106 16.236C99.0426 15.3827 100.045 14.7213 101.219 14.252C102.392 13.7613 103.715 13.516 105.187 13.516C106.659 13.516 107.981 13.7613 109.155 14.252C110.328 14.7213 111.32 15.3827 112.131 16.236C112.963 17.068 113.592 18.028 114.019 19.116C114.445 20.1827 114.659 21.3133 114.659 22.508V23.18C114.659 24.332 114.445 25.4413 114.019 26.508C113.613 27.5747 113.005 28.5347 112.195 29.388C111.384 30.22 110.392 30.8813 109.219 31.372C108.045 31.8627 106.701 32.108 105.187 32.108ZM105.187 28.3C106.275 28.3 107.192 28.0653 107.939 27.596C108.685 27.1053 109.251 26.4547 109.635 25.644C110.019 24.812 110.211 23.8733 110.211 22.828C110.211 21.7613 110.008 20.8227 109.603 20.012C109.219 19.18 108.643 18.5293 107.875 18.06C107.128 17.5693 106.232 17.324 105.187 17.324C104.141 17.324 103.235 17.5693 102.467 18.06C101.72 18.5293 101.144 19.18 100.739 20.012C100.333 20.8227 100.131 21.7613 100.131 22.828C100.131 23.8733 100.323 24.812 100.707 25.644C101.112 26.4547 101.688 27.1053 102.435 27.596C103.181 28.0653 104.099 28.3 105.187 28.3ZM126.873 32.108C124.804 32.108 123.055 31.7773 121.625 31.116C120.217 30.4547 119.14 29.548 118.393 28.396C117.647 27.2227 117.273 25.9 117.273 24.428H121.721C121.721 25.0467 121.892 25.6547 122.233 26.252C122.575 26.828 123.119 27.2973 123.865 27.66C124.633 28.0227 125.636 28.204 126.873 28.204C127.983 28.204 128.911 28.044 129.657 27.724C130.404 27.404 130.959 26.988 131.321 26.476C131.684 25.9427 131.865 25.3453 131.865 24.684C131.865 23.852 131.513 23.1907 130.809 22.7C130.105 22.188 129.017 21.868 127.545 21.74L125.497 21.58C123.257 21.388 121.465 20.6947 120.121 19.5C118.799 18.284 118.137 16.684 118.137 14.7C118.137 13.2067 118.489 11.9267 119.193 10.86C119.897 9.772 120.879 8.94 122.137 8.364C123.417 7.76667 124.911 7.468 126.617 7.468C128.388 7.468 129.913 7.77733 131.193 8.396C132.473 9.01467 133.465 9.88933 134.169 11.02C134.873 12.1293 135.225 13.4413 135.225 14.956H130.777C130.777 14.316 130.617 13.7293 130.297 13.196C129.999 12.6413 129.54 12.204 128.921 11.884C128.324 11.5427 127.556 11.372 126.617 11.372C125.721 11.372 124.975 11.5213 124.377 11.82C123.78 12.1187 123.332 12.524 123.033 13.036C122.735 13.548 122.585 14.1027 122.585 14.7C122.585 15.4253 122.852 16.0653 123.385 16.62C123.919 17.1533 124.761 17.4627 125.913 17.548L127.961 17.74C129.625 17.868 131.087 18.22 132.345 18.796C133.604 19.372 134.575 20.1507 135.257 21.132C135.961 22.1133 136.313 23.2973 136.313 24.684C136.313 26.156 135.929 27.4573 135.161 28.588C134.393 29.6973 133.295 30.5613 131.865 31.18C130.457 31.7987 128.793 32.108 126.873 32.108ZM146.068 31.5L149.364 14.7H154.484L158.292 31.5H154.772L150.9 14.796H152.756L149.332 31.5H146.068ZM144.756 31.5L144.724 27.852H148.276V31.5H144.756ZM142.964 31.5L138.228 14.124H142.548L147.06 31.5H142.964ZM155.892 31.5V27.852H159.444L159.412 31.5H155.892ZM157.3 31.5L161.3 14.124H165.332L161.14 31.5H157.3ZM179.144 31.5V26.348H178.408V20.62C178.408 19.6173 178.163 18.8707 177.672 18.38C177.181 17.8893 176.424 17.644 175.4 17.644C174.867 17.644 174.227 17.6547 173.48 17.676C172.733 17.6973 171.976 17.7293 171.208 17.772C170.461 17.7933 169.789 17.8253 169.192 17.868V14.092C169.683 14.0493 170.237 14.0067 170.856 13.964C171.475 13.9213 172.104 13.9 172.744 13.9C173.405 13.8787 174.024 13.868 174.6 13.868C176.392 13.868 177.875 14.1027 179.048 14.572C180.243 15.0413 181.139 15.7773 181.736 16.78C182.355 17.7827 182.664 19.0947 182.664 20.716V31.5H179.144ZM173.544 31.948C172.285 31.948 171.176 31.724 170.216 31.276C169.277 30.828 168.541 30.188 168.008 29.356C167.496 28.524 167.24 27.5213 167.24 26.348C167.24 25.068 167.549 24.0227 168.168 23.212C168.808 22.4013 169.693 21.7933 170.824 21.388C171.976 20.9827 173.32 20.78 174.856 20.78H178.888V23.436H174.792C173.768 23.436 172.979 23.692 172.424 24.204C171.891 24.6947 171.624 25.3347 171.624 26.124C171.624 26.9133 171.891 27.5533 172.424 28.044C172.979 28.5347 173.768 28.78 174.792 28.78C175.411 28.78 175.976 28.6733 176.488 28.46C177.021 28.2253 177.459 27.8413 177.8 27.308C178.163 26.7533 178.365 26.0067 178.408 25.068L179.496 26.316C179.389 27.532 179.091 28.556 178.6 29.388C178.131 30.22 177.469 30.86 176.616 31.308C175.784 31.7347 174.76 31.948 173.544 31.948ZM187.428 37.9V14.124H190.948V21.612L190.404 21.58C190.49 19.8093 190.852 18.3267 191.492 17.132C192.154 15.9373 193.028 15.052 194.116 14.476C195.204 13.8787 196.42 13.58 197.764 13.58C199.002 13.58 200.111 13.804 201.092 14.252C202.095 14.7 202.948 15.3293 203.652 16.14C204.378 16.9507 204.932 17.9 205.316 18.988C205.7 20.0547 205.892 21.2067 205.892 22.444V23.116C205.892 24.3747 205.7 25.548 205.316 26.636C204.954 27.7027 204.41 28.652 203.684 29.484C202.98 30.2947 202.127 30.9347 201.124 31.404C200.122 31.852 199.002 32.076 197.764 32.076C196.463 32.076 195.268 31.8093 194.18 31.276C193.114 30.7213 192.25 29.8787 191.588 28.748C190.927 27.596 190.554 26.1133 190.468 24.3L191.876 26.444V37.9H187.428ZM196.644 28.332C197.604 28.332 198.436 28.0973 199.14 27.628C199.866 27.1587 200.431 26.508 200.836 25.676C201.242 24.8227 201.444 23.8627 201.444 22.796C201.444 21.6867 201.242 20.7267 200.836 19.916C200.431 19.1053 199.866 18.476 199.14 18.028C198.436 17.5587 197.604 17.324 196.644 17.324C195.77 17.324 194.959 17.516 194.212 17.9C193.487 18.284 192.89 18.8493 192.42 19.596C191.972 20.3427 191.748 21.2387 191.748 22.284V23.564C191.748 24.5667 191.983 25.42 192.452 26.124C192.922 26.828 193.53 27.372 194.276 27.756C195.023 28.14 195.812 28.332 196.644 28.332Z" fill="#121212"/>
</svg>
