<svg width="1440" height="810" viewBox="0 0 1440 810" fill="none" xmlns="http://www.w3.org/2000/svg">
<g clip-path="url(#clip0_521_145)">
<rect width="1440" height="810" fill="url(#paint0_radial_521_145)"/>
<rect width="1440" height="810" fill="#CCFF00"/>
<path d="M277 496C277 523.614 254.614 546 227 546C199.386 546 177 523.614 177 496C177 468.386 199.386 446 227 446C254.614 446 277 468.386 277 496Z" fill="white"/>
<path d="M198 613C198 640.614 179.075 652.5 148 663C119.5 672.63 89 660.114 89 632.5C89 604.886 120.386 563 148 563C175.614 563 198 585.386 198 613Z" fill="white"/>
<path d="M328 552C328 579.614 295.614 606 268 606C240.386 606 218 583.614 218 556C218 528.386 240.386 506 268 506C295.614 506 328 524.386 328 552Z" fill="white"/>
<path d="M358.413 632.5C358.413 660.114 331.614 663 304 663C276.386 663 254 640.614 254 613C254 585.386 275.299 572 302.913 572C330.528 572 358.413 604.886 358.413 632.5Z" fill="white"/>
<path d="M236 552C236 579.614 213.614 602 186 602C158.386 602 136 579.614 136 552C136 524.386 158.386 502 186 502C213.614 502 236 524.386 236 552Z" fill="white"/>
<path d="M286.5 632.5C286.5 659.709 292.325 691.065 229.837 667.585C228.057 666.917 225.959 666.987 224.222 667.759C162.492 695.186 179.075 650.713 179.075 623.5C179.075 595.886 201.46 557.5 229.075 557.5C256.689 557.5 286.5 604.886 286.5 632.5Z" fill="white"/>
<path d="M229.723 605.856C229.723 595.548 227.738 593.257 227.241 589.821C226.745 586.385 227.612 571.396 226.248 559.661C223.433 535.433 221.78 613.109 222.773 621.89C197.454 618.836 191 608.528 191 608.528C191 608.528 197.454 627.998 222.773 627.235C222.773 633.725 222.277 762 222.277 762H229.723V639.833V631.816V611.2C255.539 605.856 261 589.821 261 589.821C261 589.821 249.085 605.856 229.723 605.856Z" fill="#121212" stroke="#121212"/>
<path d="M1301.19 504.595C1301.19 536.404 1275.4 562.19 1243.59 562.19C1211.79 562.19 1182.5 536.404 1182.5 504.595C1182.5 472.786 1211.79 428 1243.59 428C1275.4 428 1301.19 472.786 1301.19 504.595Z" fill="white"/>
<path d="M1210.19 639.367C1210.19 671.176 1184.4 696.962 1152.59 696.962C1120.79 696.962 1073.5 671.176 1073.5 639.367C1073.5 607.558 1120.79 581.772 1152.59 581.772C1184.4 581.772 1210.19 607.558 1210.19 639.367Z" fill="white"/>
<path d="M1376 556C1376 587.809 1329.21 626.696 1297.41 626.696C1265.6 626.696 1239.81 600.91 1239.81 569.101C1239.81 537.292 1265.6 511.506 1297.41 511.506C1329.21 511.506 1376 524.191 1376 556Z" fill="white"/>
<path d="M1402.5 647C1402.5 678.809 1364.1 696.962 1332.29 696.962C1300.48 696.962 1274.7 671.176 1274.7 639.367C1274.7 607.558 1300.48 581.772 1332.29 581.772C1364.1 581.772 1402.5 615.191 1402.5 647Z" fill="white"/>
<path d="M1253.96 569.101C1253.96 600.91 1228.18 626.696 1196.37 626.696C1164.56 626.696 1125.5 587.809 1125.5 556C1125.5 524.191 1164.56 511.506 1196.37 511.506C1228.18 511.506 1253.96 537.292 1253.96 569.101Z" fill="white"/>
<path d="M1312.13 657.797C1312.13 689.606 1275.4 696.962 1243.59 696.962C1211.79 696.962 1186 689.606 1186 657.797C1186 625.989 1211.79 581.772 1243.59 581.772C1275.4 581.772 1312.13 625.989 1312.13 657.797Z" fill="white"/>
<path d="M1246.73 631.138C1246.73 619.264 1244.44 616.625 1243.87 612.668C1243.3 608.71 1244.3 591.444 1242.73 577.926C1239.49 550.018 1237.58 639.493 1238.73 649.608C1209.56 646.089 1202.13 634.216 1202.13 634.216C1202.13 634.216 1209.56 656.644 1238.73 655.764C1238.73 663.24 1238.15 811 1238.15 811H1246.73V670.276V661.041V637.294C1276.47 631.138 1282.76 612.668 1282.76 612.668C1282.76 612.668 1269.04 631.138 1246.73 631.138Z" fill="#121212" stroke="#121212" stroke-width="1.1519"/>
<path d="M663.535 700.892C663.535 714.088 652.838 724.785 639.642 724.785C626.447 724.785 615.75 714.088 615.75 700.892C615.75 687.697 626.447 677 639.642 677C652.838 677 663.535 687.697 663.535 700.892Z" fill="#F5F4EC"/>
<path d="M625.785 756.801C625.785 769.996 615.088 780.693 601.892 780.693C588.697 780.693 578 769.996 578 756.801C578 743.605 588.697 732.908 601.892 732.908C615.088 732.908 625.785 743.605 625.785 756.801Z" fill="#F5F4EC"/>
<path d="M683.127 729.563C683.127 742.759 672.43 753.456 659.234 753.456C646.039 753.456 635.342 742.759 635.342 729.563C635.342 716.368 646.039 705.671 659.234 705.671C672.43 705.671 683.127 716.368 683.127 729.563Z" fill="#F5F4EC"/>
<path d="M700.329 756.801C700.329 769.996 689.632 780.693 676.437 780.693C663.241 780.693 652.544 769.996 652.544 756.801C652.544 743.605 663.241 732.908 676.437 732.908C689.632 732.908 700.329 743.605 700.329 756.801Z" fill="#F5F4EC"/>
<path d="M643.943 727.652C643.943 740.847 633.246 751.544 620.051 751.544C606.855 751.544 596.158 740.847 596.158 727.652C596.158 714.456 606.855 703.759 620.051 703.759C633.246 703.759 643.943 714.456 643.943 727.652Z" fill="#F5F4EC"/>
<path d="M668.074 764.446C668.074 777.642 652.838 780.693 639.642 780.693C626.447 780.693 615.75 777.642 615.75 764.446C615.75 751.251 626.447 732.908 639.642 732.908C652.838 732.908 668.074 751.251 668.074 764.446Z" fill="#F5F4EC"/>
<path d="M640.943 753.387C640.943 748.461 639.994 747.367 639.757 745.725C639.52 744.083 639.934 736.92 639.283 731.313C637.937 719.736 637.148 756.853 637.622 761.049C625.523 759.589 622.439 754.664 622.439 754.664C622.439 754.664 625.523 763.968 637.622 763.603C637.622 766.704 637.385 828 637.385 828H640.943V769.623V765.792V755.941C653.279 753.387 655.889 745.725 655.889 745.725C655.889 745.725 650.195 753.387 640.943 753.387Z" fill="#121212" stroke="#121212" stroke-width="0.477848"/>
<path d="M825.863 700.892C825.863 714.088 815.166 724.785 801.971 724.785C788.775 724.785 778.078 714.088 778.078 700.892C778.078 687.697 788.775 677 801.971 677C815.166 677 825.863 687.697 825.863 700.892Z" fill="#F5F4EC"/>
<path d="M788.113 756.801C788.113 769.996 777.416 780.693 764.221 780.693C751.025 780.693 740.328 769.996 740.328 756.801C740.328 743.605 751.025 732.908 764.221 732.908C777.416 732.908 788.113 743.605 788.113 756.801Z" fill="#F5F4EC"/>
<path d="M845.455 729.563C845.455 742.759 834.758 753.456 821.562 753.456C808.367 753.456 797.67 742.759 797.67 729.563C797.67 716.368 808.367 705.671 821.562 705.671C834.758 705.671 845.455 716.368 845.455 729.563Z" fill="#F5F4EC"/>
<path d="M862.657 756.801C862.657 769.996 851.96 780.693 838.765 780.693C825.569 780.693 814.872 769.996 814.872 756.801C814.872 743.605 825.569 732.908 838.765 732.908C851.96 732.908 862.657 743.605 862.657 756.801Z" fill="#F5F4EC"/>
<path d="M806.271 727.652C806.271 740.847 795.574 751.544 782.379 751.544C769.183 751.544 758.486 740.847 758.486 727.652C758.486 714.456 769.183 703.759 782.379 703.759C795.574 703.759 806.271 714.456 806.271 727.652Z" fill="#F5F4EC"/>
<path d="M830.402 764.446C830.402 777.642 815.166 780.693 801.971 780.693C788.775 780.693 778.078 777.642 778.078 764.446C778.078 751.251 788.775 732.908 801.971 732.908C815.166 732.908 830.402 751.251 830.402 764.446Z" fill="#F5F4EC"/>
<path d="M803.271 753.387C803.271 748.461 802.323 747.367 802.085 745.725C801.848 744.083 802.263 736.92 801.611 731.313C800.265 719.736 799.476 756.853 799.95 761.049C787.852 759.589 784.768 754.664 784.768 754.664C784.768 754.664 787.852 763.968 799.95 763.603C799.95 766.704 799.713 828 799.713 828H803.271V769.623V765.792V755.941C815.607 753.387 818.217 745.725 818.217 745.725C818.217 745.725 812.523 753.387 803.271 753.387Z" fill="#121212" stroke="#121212" stroke-width="0.477848"/>
<g clip-path="url(#clip1_521_145)">
<circle cx="-16" cy="764" r="40" fill="#EEFFA8"/>
<circle cx="55" cy="762" r="50" fill="#EEFFA8"/>
<circle cx="105" cy="759" r="25" fill="#EEFFA8"/>
<circle cx="182" cy="762" r="70" fill="#EEFFA8"/>
<circle cx="548" cy="776" r="70" fill="#EEFFA8"/>
<circle cx="634" cy="794" r="70" fill="#EEFFA8"/>
<circle cx="729" cy="794" r="70" fill="#EEFFA8"/>
<circle cx="268" cy="764" r="40" fill="#EEFFA8"/>
<circle cx="411" cy="756" r="32" fill="#EEFFA8"/>
<circle cx="468" cy="772" r="40" fill="#EEFFA8"/>
<circle cx="337" cy="792" r="60" fill="#EEFFA8"/>
<circle cx="750" cy="764" r="30" fill="#EEFFA8"/>
<circle cx="810" cy="772" r="60" fill="#EEFFA8"/>
<circle cx="880" cy="764" r="40" fill="#EEFFA8"/>
<circle cx="951" cy="762" r="50" fill="#EEFFA8"/>
<circle cx="1001" cy="759" r="25" fill="#EEFFA8"/>
<circle cx="1078" cy="762" r="70" fill="#EEFFA8"/>
<circle cx="1164" cy="764" r="40" fill="#EEFFA8"/>
<circle cx="1307" cy="756" r="32" fill="#EEFFA8"/>
<circle cx="1364" cy="772" r="40" fill="#EEFFA8"/>
<circle cx="1433" cy="776" r="60" fill="#EEFFA8"/>
<circle cx="1233" cy="792" r="60" fill="#EEFFA8"/>
<circle cx="30" cy="794" r="30" fill="white"/>
<circle cx="90" cy="802" r="60" fill="white"/>
<circle cx="160" cy="794" r="40" fill="white"/>
<circle cx="231" cy="792" r="50" fill="white"/>
<circle cx="281" cy="789" r="25" fill="white"/>
<circle cx="358" cy="792" r="70" fill="white"/>
<circle cx="444" cy="794" r="40" fill="white"/>
<circle cx="587" cy="786" r="32" fill="white"/>
<circle cx="644" cy="802" r="40" fill="white"/>
<circle cx="513" cy="822" r="60" fill="white"/>
<circle cx="639" cy="802" r="30" fill="white"/>
<circle cx="699" cy="820" r="60" fill="white"/>
<circle cx="769" cy="802" r="40" fill="white"/>
<circle cx="840" cy="800" r="50" fill="white"/>
<circle cx="890" cy="797" r="25" fill="white"/>
<circle cx="967" cy="800" r="70" fill="white"/>
<circle cx="1053" cy="802" r="40" fill="white"/>
<circle cx="1196" cy="794" r="32" fill="white"/>
<circle cx="1253" cy="810" r="40" fill="white"/>
<circle cx="1122" cy="830" r="60" fill="white"/>
<circle cx="870" cy="822" r="30" fill="white"/>
<circle cx="930" cy="830" r="60" fill="white"/>
<circle cx="1000" cy="822" r="40" fill="white"/>
<circle cx="1071" cy="820" r="50" fill="white"/>
<circle cx="1121" cy="817" r="25" fill="white"/>
<circle cx="1198" cy="820" r="70" fill="white"/>
<circle cx="1284" cy="822" r="40" fill="white"/>
<circle cx="1428" cy="804" r="32" fill="white"/>
<circle cx="1353" cy="830" r="60" fill="white"/>
</g>
<g filter="url(#filter0_f_521_145)">
<rect x="437" y="90" width="600" height="600" rx="300" fill="url(#paint1_radial_521_145)"/>
</g>
</g>
<defs>
<filter id="filter0_f_521_145" x="298" y="-49" width="878" height="878" filterUnits="userSpaceOnUse" color-interpolation-filters="sRGB">
<feFlood flood-opacity="0" result="BackgroundImageFix"/>
<feBlend mode="normal" in="SourceGraphic" in2="BackgroundImageFix" result="shape"/>
<feGaussianBlur stdDeviation="69.5" result="effect1_foregroundBlur_521_145"/>
</filter>
<radialGradient id="paint0_radial_521_145" cx="0" cy="0" r="1" gradientUnits="userSpaceOnUse" gradientTransform="translate(720 405) rotate(90) scale(405 720)">
<stop stop-color="#1CFF33" stop-opacity="0.74"/>
<stop offset="0.730124" stop-color="#0DE622"/>
<stop offset="1" stop-color="#00E617"/>
</radialGradient>
<radialGradient id="paint1_radial_521_145" cx="0" cy="0" r="1" gradientUnits="userSpaceOnUse" gradientTransform="translate(737 390) rotate(90) scale(300)">
<stop stop-color="#F1E811"/>
<stop offset="1" stop-color="#E0FC6D" stop-opacity="0.58"/>
</radialGradient>
<clipPath id="clip0_521_145">
<rect width="1440" height="810" fill="white"/>
</clipPath>
<clipPath id="clip1_521_145">
<rect width="1440" height="169" fill="white" transform="translate(0 641)"/>
</clipPath>
</defs>
</svg>
