<svg width="1440" height="510" viewBox="0 0 1440 510" fill="none" xmlns="http://www.w3.org/2000/svg">
<g clip-path="url(#clip0_525_258)">
<rect width="1440" height="120" fill="#CCFF00"/>
<circle cx="-16" cy="1" r="40" fill="#EEFFA8"/>
<circle cx="55" cy="-1" r="50" fill="#EEFFA8"/>
<circle cx="105" cy="-4" r="25" fill="#EEFFA8"/>
<circle cx="182" cy="-1" r="70" fill="#EEFFA8"/>
<circle cx="548" cy="13" r="70" fill="#EEFFA8"/>
<circle cx="634" cy="31" r="70" fill="#EEFFA8"/>
<circle cx="729" cy="31" r="70" fill="#EEFFA8"/>
<circle cx="268" cy="1" r="40" fill="#EEFFA8"/>
<circle cx="411" cy="-7" r="32" fill="#EEFFA8"/>
<circle cx="468" cy="9" r="40" fill="#EEFFA8"/>
<circle cx="337" cy="29" r="60" fill="#EEFFA8"/>
<circle cx="750" cy="21" r="30" fill="#EEFFA8"/>
<circle cx="810" cy="29" r="60" fill="#EEFFA8"/>
<circle cx="880" cy="21" r="40" fill="#EEFFA8"/>
<circle cx="951" cy="19" r="50" fill="#EEFFA8"/>
<circle cx="1001" cy="16" r="25" fill="#EEFFA8"/>
<circle cx="1078" cy="19" r="70" fill="#EEFFA8"/>
<circle cx="1164" cy="21" r="40" fill="#EEFFA8"/>
<circle cx="1307" cy="13" r="32" fill="#EEFFA8"/>
<circle cx="1364" cy="29" r="40" fill="#EEFFA8"/>
<circle cx="1433" cy="33" r="60" fill="#EEFFA8"/>
<circle cx="1233" cy="49" r="60" fill="#EEFFA8"/>
<circle cx="30" cy="-18" r="30" fill="white"/>
<circle cx="90" cy="-10" r="60" fill="white"/>
<circle cx="160" cy="-18" r="40" fill="white"/>
<circle cx="231" cy="-20" r="50" fill="white"/>
<circle cx="281" cy="-23" r="25" fill="white"/>
<circle cx="358" cy="-20" r="70" fill="white"/>
<circle cx="444" cy="-18" r="40" fill="white"/>
<circle cx="587" cy="-26" r="32" fill="white"/>
<circle cx="644" cy="-10" r="40" fill="white"/>
<circle cx="513" cy="10" r="60" fill="white"/>
<circle cx="639" cy="-11" r="30" fill="white"/>
<circle cx="699" cy="7" r="60" fill="white"/>
<circle cx="769" cy="-11" r="40" fill="white"/>
<circle cx="840" cy="-13" r="50" fill="white"/>
<circle cx="890" cy="-16" r="25" fill="white"/>
<circle cx="967" cy="-13" r="70" fill="white"/>
<circle cx="1053" cy="-11" r="40" fill="white"/>
<circle cx="1196" cy="-19" r="32" fill="white"/>
<circle cx="1253" cy="-3" r="40" fill="white"/>
<circle cx="1122" cy="17" r="60" fill="white"/>
<circle cx="870" cy="-28" r="30" fill="white"/>
<circle cx="930" cy="-20" r="60" fill="white"/>
<circle cx="1000" cy="-28" r="40" fill="white"/>
<circle cx="1071" cy="-30" r="50" fill="white"/>
<circle cx="1198" cy="-30" r="70" fill="white"/>
<circle cx="1284" cy="-28" r="40" fill="white"/>
<circle cx="1353" cy="-20" r="60" fill="white"/>
</g>
<rect width="1440" height="270" transform="translate(0 120)" fill="#CCFF00"/>
<g clip-path="url(#clip1_525_258)">
<rect width="1440" height="120" transform="translate(0 390)" fill="#CCFF00"/>
<circle cx="-20" cy="481" r="40" fill="#EEFFA8"/>
<circle cx="51" cy="479" r="50" fill="#EEFFA8"/>
<circle cx="101" cy="476" r="25" fill="#EEFFA8"/>
<circle cx="178" cy="479" r="70" fill="#EEFFA8"/>
<circle cx="544" cy="493" r="70" fill="#EEFFA8"/>
<circle cx="630" cy="511" r="70" fill="#EEFFA8"/>
<circle cx="725" cy="511" r="70" fill="#EEFFA8"/>
<circle cx="264" cy="481" r="40" fill="#EEFFA8"/>
<circle cx="407" cy="473" r="32" fill="#EEFFA8"/>
<circle cx="464" cy="489" r="40" fill="#EEFFA8"/>
<circle cx="333" cy="509" r="60" fill="#EEFFA8"/>
<circle cx="788" cy="481" r="30" fill="#EEFFA8"/>
<circle cx="848" cy="489" r="60" fill="#EEFFA8"/>
<circle cx="918" cy="481" r="40" fill="#EEFFA8"/>
<circle cx="989" cy="479" r="50" fill="#EEFFA8"/>
<circle cx="1039" cy="476" r="25" fill="#EEFFA8"/>
<circle cx="1116" cy="479" r="70" fill="#EEFFA8"/>
<circle cx="1202" cy="481" r="40" fill="#EEFFA8"/>
<circle cx="1345" cy="473" r="32" fill="#EEFFA8"/>
<circle cx="1402" cy="489" r="40" fill="#EEFFA8"/>
<circle cx="1471" cy="493" r="60" fill="#EEFFA8"/>
<circle cx="1271" cy="509" r="60" fill="#EEFFA8"/>
<circle cx="30" cy="511" r="30" fill="white"/>
<circle cx="90" cy="519" r="60" fill="white"/>
<circle cx="160" cy="511" r="40" fill="white"/>
<circle cx="231" cy="509" r="50" fill="white"/>
<circle cx="281" cy="506" r="25" fill="white"/>
<circle cx="358" cy="537" r="70" fill="white"/>
<circle cx="444" cy="511" r="40" fill="white"/>
<circle cx="587" cy="503" r="32" fill="white"/>
<circle cx="644" cy="519" r="40" fill="white"/>
<circle cx="513" cy="539" r="60" fill="white"/>
<circle cx="635" cy="519" r="30" fill="white"/>
<circle cx="695" cy="537" r="60" fill="white"/>
<circle cx="765" cy="519" r="40" fill="white"/>
<circle cx="836" cy="517" r="50" fill="white"/>
<circle cx="886" cy="514" r="25" fill="white"/>
<circle cx="963" cy="531" r="70" fill="white"/>
<circle cx="1049" cy="519" r="40" fill="white"/>
<circle cx="1192" cy="511" r="32" fill="white"/>
<circle cx="1249" cy="527" r="40" fill="white"/>
<circle cx="1118" cy="547" r="60" fill="white"/>
<circle cx="870" cy="533" r="30" fill="white"/>
<circle cx="930" cy="541" r="60" fill="white"/>
<circle cx="1000" cy="533" r="40" fill="white"/>
<circle cx="1071" cy="531" r="50" fill="white"/>
<circle cx="1121" cy="528" r="25" fill="white"/>
<circle cx="1198" cy="531" r="70" fill="white"/>
<circle cx="1284" cy="533" r="40" fill="white"/>
<circle cx="1428" cy="515" r="32" fill="white"/>
<circle cx="1353" cy="541" r="60" fill="white"/>
</g>
<defs>
<clipPath id="clip0_525_258">
<rect width="1440" height="120" fill="white"/>
</clipPath>
<clipPath id="clip1_525_258">
<rect width="1440" height="120" fill="white" transform="translate(0 390)"/>
</clipPath>
</defs>
</svg>
