<svg width="1440" height="741" viewBox="0 0 1440 741" fill="none" xmlns="http://www.w3.org/2000/svg">
<g clip-path="url(#clip0_525_391)">
<rect width="1440" height="741" fill="#121212"/>
<g clip-path="url(#clip1_525_391)">
<rect width="1440" height="120" transform="translate(0 621)" fill="#121212"/>
<circle cx="-20" cy="712" r="40" fill="#575757"/>
<circle cx="51" cy="710" r="50" fill="#575757"/>
<circle cx="101" cy="707" r="25" fill="#575757"/>
<circle cx="178" cy="710" r="70" fill="#575757"/>
<circle cx="544" cy="724" r="70" fill="#575757"/>
<circle cx="630" cy="742" r="70" fill="#575757"/>
<circle cx="725" cy="742" r="70" fill="#575757"/>
<circle cx="264" cy="712" r="40" fill="#575757"/>
<circle cx="407" cy="704" r="32" fill="#575757"/>
<circle cx="464" cy="720" r="40" fill="#575757"/>
<circle cx="333" cy="740" r="60" fill="#575757"/>
<circle cx="788" cy="712" r="30" fill="#575757"/>
<circle cx="848" cy="720" r="60" fill="#575757"/>
<circle cx="918" cy="712" r="40" fill="#575757"/>
<circle cx="989" cy="710" r="50" fill="#575757"/>
<circle cx="1039" cy="707" r="25" fill="#575757"/>
<circle cx="1116" cy="710" r="70" fill="#575757"/>
<circle cx="1202" cy="712" r="40" fill="#575757"/>
<circle cx="1345" cy="704" r="32" fill="#575757"/>
<circle cx="1402" cy="720" r="40" fill="#575757"/>
<circle cx="1471" cy="724" r="60" fill="#575757"/>
<circle cx="1271" cy="740" r="60" fill="#575757"/>
<circle cx="30" cy="742" r="30" fill="white"/>
<circle cx="90" cy="750" r="60" fill="white"/>
<circle cx="160" cy="742" r="40" fill="white"/>
<circle cx="231" cy="740" r="50" fill="white"/>
<circle cx="281" cy="737" r="25" fill="white"/>
<circle cx="358" cy="768" r="70" fill="white"/>
<circle cx="444" cy="742" r="40" fill="white"/>
<circle cx="587" cy="734" r="32" fill="white"/>
<circle cx="644" cy="750" r="40" fill="white"/>
<circle cx="513" cy="770" r="60" fill="white"/>
<circle cx="635" cy="750" r="30" fill="white"/>
<circle cx="695" cy="768" r="60" fill="white"/>
<circle cx="765" cy="750" r="40" fill="white"/>
<circle cx="836" cy="748" r="50" fill="white"/>
<circle cx="886" cy="745" r="25" fill="white"/>
<circle cx="963" cy="762" r="70" fill="white"/>
<circle cx="1049" cy="750" r="40" fill="white"/>
<circle cx="1192" cy="742" r="32" fill="white"/>
<circle cx="1249" cy="758" r="40" fill="white"/>
<circle cx="1118" cy="778" r="60" fill="white"/>
<circle cx="870" cy="764" r="30" fill="white"/>
<circle cx="930" cy="772" r="60" fill="white"/>
<circle cx="1000" cy="764" r="40" fill="white"/>
<circle cx="1071" cy="762" r="50" fill="white"/>
<circle cx="1121" cy="759" r="25" fill="white"/>
<circle cx="1198" cy="762" r="70" fill="white"/>
<circle cx="1284" cy="764" r="40" fill="white"/>
<circle cx="1428" cy="746" r="32" fill="white"/>
<circle cx="1353" cy="772" r="60" fill="white"/>
</g>
<g clip-path="url(#clip2_525_391)">
<rect width="1440" height="120" fill="#121212"/>
<circle cx="-16" cy="1" r="40" fill="#575757"/>
<circle cx="55" cy="-1" r="50" fill="#575757"/>
<circle cx="105" cy="-4" r="25" fill="#575757"/>
<circle cx="182" cy="-1" r="70" fill="#575757"/>
<circle cx="548" cy="13" r="70" fill="#575757"/>
<circle cx="634" cy="31" r="70" fill="#575757"/>
<circle cx="729" cy="31" r="70" fill="#575757"/>
<circle cx="268" cy="1" r="40" fill="#575757"/>
<circle cx="411" cy="-7" r="32" fill="#575757"/>
<circle cx="468" cy="9" r="40" fill="#575757"/>
<circle cx="337" cy="29" r="60" fill="#575757"/>
<g filter="url(#filter0_f_525_391)">
<rect x="90" y="-27" width="142" height="142" rx="71" fill="url(#paint0_radial_525_391)"/>
<rect x="82" y="-35" width="158" height="158" rx="79" stroke="#F1E811" stroke-opacity="0.11" stroke-width="16"/>
</g>
<circle cx="750" cy="21" r="30" fill="#575757"/>
<circle cx="810" cy="29" r="60" fill="#575757"/>
<circle cx="880" cy="21" r="40" fill="#575757"/>
<circle cx="951" cy="19" r="50" fill="#575757"/>
<circle cx="1001" cy="16" r="25" fill="#575757"/>
<circle cx="1078" cy="19" r="70" fill="#575757"/>
<circle cx="1164" cy="21" r="40" fill="#575757"/>
<circle cx="1307" cy="13" r="32" fill="#575757"/>
<circle cx="1364" cy="29" r="40" fill="#575757"/>
<circle cx="1433" cy="33" r="60" fill="#575757"/>
<circle cx="1233" cy="49" r="60" fill="#575757"/>
<circle cx="30" cy="-18" r="30" fill="white"/>
<circle cx="90" cy="-10" r="60" fill="white"/>
<circle cx="160" cy="-18" r="40" fill="white"/>
<circle cx="231" cy="-20" r="50" fill="white"/>
<circle cx="281" cy="-23" r="25" fill="white"/>
<circle cx="358" cy="-20" r="70" fill="white"/>
<circle cx="444" cy="-18" r="40" fill="white"/>
<circle cx="587" cy="-26" r="32" fill="white"/>
<circle cx="644" cy="-10" r="40" fill="white"/>
<circle cx="513" cy="10" r="60" fill="white"/>
<circle cx="639" cy="-11" r="30" fill="white"/>
<circle cx="699" cy="7" r="60" fill="white"/>
<circle cx="769" cy="-11" r="40" fill="white"/>
<circle cx="840" cy="-13" r="50" fill="white"/>
<circle cx="890" cy="-16" r="25" fill="white"/>
<circle cx="967" cy="-13" r="70" fill="white"/>
<circle cx="1053" cy="-11" r="40" fill="white"/>
<circle cx="1196" cy="-19" r="32" fill="white"/>
<circle cx="1253" cy="-3" r="40" fill="white"/>
<circle cx="1122" cy="17" r="60" fill="white"/>
<circle cx="870" cy="-28" r="30" fill="white"/>
<circle cx="930" cy="-20" r="60" fill="white"/>
<circle cx="1000" cy="-28" r="40" fill="white"/>
<circle cx="1071" cy="-30" r="50" fill="white"/>
<circle cx="1198" cy="-30" r="70" fill="white"/>
<circle cx="1284" cy="-28" r="40" fill="white"/>
<circle cx="1353" cy="-20" r="60" fill="white"/>
</g>
</g>
<defs>
<filter id="filter0_f_525_391" x="67" y="-50" width="188" height="188" filterUnits="userSpaceOnUse" color-interpolation-filters="sRGB">
<feFlood flood-opacity="0" result="BackgroundImageFix"/>
<feBlend mode="normal" in="SourceGraphic" in2="BackgroundImageFix" result="shape"/>
<feGaussianBlur stdDeviation="3.5" result="effect1_foregroundBlur_525_391"/>
</filter>
<radialGradient id="paint0_radial_525_391" cx="0" cy="0" r="1" gradientUnits="userSpaceOnUse" gradientTransform="translate(161 44) rotate(90) scale(71)">
<stop stop-color="#F2E807"/>
<stop offset="1" stop-color="#FCF76D" stop-opacity="0.58"/>
</radialGradient>
<clipPath id="clip0_525_391">
<rect width="1440" height="741" fill="white"/>
</clipPath>
<clipPath id="clip1_525_391">
<rect width="1440" height="120" fill="white" transform="translate(0 621)"/>
</clipPath>
<clipPath id="clip2_525_391">
<rect width="1440" height="120" fill="white"/>
</clipPath>
</defs>
</svg>
